<?xml version="1.0" encoding="utf-8"?>
<!-- Generator: Adobe Illustrator 26.0.2, SVG Export Plug-In . SVG Version: 6.00 Build 0)  -->
<svg version="1.1" id="outline" xmlns="http://www.w3.org/2000/svg"
    xmlns:xlink="http://www.w3.org/1999/xlink" x="0px" y="0px"
    viewBox="0 0 512 512" enable-background="new 0 0 512 512" xml:space="preserve">
<g fill="#53570E">
	<path d="M256,160c-2.33,0-4.544,1.016-6.063,2.781C245.284,168.188,136,295.913,136,360c0,66.168,53.832,120,120,120
		s120-53.832,120-120c0-64.087-109.284-191.812-113.937-197.219C260.544,161.016,258.33,160,256,160z M360,360
		c0,57.346-46.654,104-104,104s-104-46.654-104-104c0-23.633,18.843-63.232,54.492-114.52c19.789-28.47,39.786-53.282,49.508-65.033
		c9.722,11.751,29.719,36.563,49.508,65.033C341.157,296.768,360,336.367,360,360z"/>
	<path d="M248,440c0,4.418,3.582,8,8,8c48.523,0,88-39.477,88-88c0-4.418-3.582-8-8-8s-8,3.582-8,8c0,39.701-32.299,72-72,72
		C251.582,432,248,435.582,248,440z"/>
	<path d="M96,304c44.112,0,80-35.888,80-80c0-18.202-12.618-44.978-37.505-79.583c-18.045-25.091-35.794-44.928-36.541-45.76
		C100.437,96.966,98.271,96,96,96s-4.437,0.966-5.954,2.657c-0.747,0.832-18.496,20.669-36.541,45.76
		C28.618,179.022,16,205.798,16,224C16,268.112,51.888,304,96,304z M96.001,116.152C118.192,142.088,160,196.604,160,224
		c0,35.29-28.71,64-64,64s-64-28.71-64-64C32,196.626,73.81,142.096,96.001,116.152z"/>
	<path d="M96,272c26.468,0,48-21.532,48-48c0-4.418-3.582-8-8-8s-8,3.582-8,8c0,17.645-14.355,32-32,32c-4.418,0-8,3.582-8,8
		S91.582,272,96,272z"/>
	<path d="M416,256c44.112,0,80-35.888,80-80c0-18.202-12.618-44.978-37.505-79.583c-18.045-25.091-35.794-44.928-36.541-45.76
		C420.437,48.966,418.271,48,416,48s-4.437,0.966-5.954,2.657c-0.747,0.832-18.496,20.669-36.541,45.76
		C348.618,131.022,336,157.798,336,176C336,220.112,371.888,256,416,256z M416.001,68.152C438.192,94.088,480,148.604,480,176
		c0,35.29-28.71,64-64,64s-64-28.71-64-64C352,148.626,393.81,94.096,416.001,68.152z"/>
	<path d="M416,224c26.468,0,48-21.532,48-48c0-4.418-3.582-8-8-8s-8,3.582-8,8c0,17.645-14.355,32-32,32c-4.418,0-8,3.582-8,8
		S411.582,224,416,224z"/>
	<path d="M208,160c26.468,0,48-21.532,48-48c0-24.203-37.483-71.67-41.758-77.003C212.725,33.103,210.428,32,208,32
		s-4.725,1.103-6.242,2.997C197.483,40.33,160,87.797,160,112C160,138.468,181.532,160,208,160z M208,53.078
		c14.333,19.146,32,46.747,32,58.922c0,17.645-14.355,32-32,32s-32-14.355-32-32C176,99.825,193.667,72.225,208,53.078z"/>
	<path d="M448,264c-2.428,0-4.725,1.103-6.242,2.997C437.483,272.33,400,319.797,400,344c0,26.468,21.532,48,48,48s48-21.532,48-48
		c0-24.203-37.483-71.67-41.758-77.003C452.725,265.103,450.428,264,448,264z M448,376c-17.645,0-32-14.355-32-32
		c0-12.175,17.667-39.775,32-58.922c14.333,19.146,32,46.747,32,58.922C480,361.645,465.645,376,448,376z"/>
	<path d="M64,320c-2.428,0-4.725,1.103-6.242,2.997C53.483,328.33,16,375.797,16,400c0,26.468,21.532,48,48,48s48-21.532,48-48
		c0-24.203-37.483-71.67-41.758-77.003C68.725,321.103,66.428,320,64,320z M64,432c-17.645,0-32-14.355-32-32
		c0-12.175,17.667-39.775,32-58.922C78.333,360.225,96,387.825,96,400C96,417.645,81.645,432,64,432z"/>
</g>
</svg>