<?xml version="1.0" encoding="UTF-8" standalone="no"?>
<svg id="Line" xmlns="http://www.w3.org/2000/svg" viewBox="0 0 64 64">
    <title>1</title>
    <path fill="#53570E"
        d="M8.8631,60H24.34747c6.293,0,9.11524-2.90186,10.375-5.33594a31.26527,31.26527,0,0,1,4.543-5.77051,11.81787,11.81787,0,0,1,3.9541-2.79248c10.80469-4.69336,12.79395-6.418,12.98438-6.59961a.9493.9493,0,0,0,.11816-.13281c2.52051-3.42676,3.50879-6.79052,2.93848-9.99756-.76856-4.31591-4.17578-7.36816-6.89844-9.16845a1,1,0,1,0-1.10351,1.668c2.39648,1.585,5.38867,4.23339,6.0332,7.85107.46582,2.61768-.37891,5.43164-2.51074,8.36523-.39844.3125-2.82129,2.03711-12.3584,6.18018a13.80326,13.80326,0,0,0-4.61914,3.26123,34.1734,34.1734,0,0,0-4.85742,6.2168C31.48517,56.56836,28.59161,58,24.34747,58H8.8631a2.28083,2.28083,0,0,1-.17774-4.55469,18.02643,18.02643,0,0,0,9.34473-4.75146c6.917-6.20557,8.00293-15.57129,8.03516-20.602A9.98349,9.98349,0,0,0,24.827,23.207L16.66,8.44824A1.64953,1.64953,0,0,1,18.10333,6H36.60626a1.641,1.641,0,0,1,1.26856.59521,26.14419,26.14419,0,0,1,4.19824,7.20362c1.35547,3.56738,4.32715,10.27,5.4248,10.92773a1,1,0,0,0,1.12989-1.64551,58.71086,58.71086,0,0,1-4.68555-9.99267,28.189,28.189,0,0,0-4.52734-7.76953A3.63431,3.63431,0,0,0,36.60626,4H18.10333A3.64954,3.64954,0,0,0,14.91,9.4165l8.167,14.75879a7.97938,7.97938,0,0,1,.98828,3.90381c-.0293,4.7002-1.02735,13.43506-7.3711,19.12647A16.0224,16.0224,0,0,1,8.45294,51.459a4.33029,4.33029,0,0,0-3.87012,4.26075A4.28487,4.28487,0,0,0,8.8631,60Z" />
</svg>