<?xml version="1.0" encoding="UTF-8" standalone="no"?>
<svg width="64" height="64" viewBox="0 0 64 64" fill="none" xmlns="http://www.w3.org/2000/svg">
    <path
        d="M55.5599 36.34V19.79C55.4786 17.2411 54.4088 14.8239 52.577 13.0496C50.7453 11.2754 48.2951 10.2833 45.7449 10.2833C43.1948 10.2833 40.7446 11.2754 38.9128 13.0496C37.081 14.8239 36.0113 17.2411 35.9299 19.79V27.64V49.19C35.8575 51.2143 35.0024 53.1315 33.5448 54.538C32.0871 55.9444 30.1405 56.7304 28.1149 56.7304C26.0893 56.7304 24.1428 55.9444 22.6851 54.538C21.2274 53.1315 20.3724 51.2143 20.2999 49.19V35.53C24.0326 35.1826 27.4999 33.4502 30.0189 30.6739C32.5379 27.8976 33.9261 24.2787 33.9099 20.53V10.43C33.9073 9.34965 33.4763 8.31445 32.7114 7.55147C31.9465 6.78848 30.9103 6.36 29.8299 6.36H27.0999V6C27.0999 5.73478 26.9946 5.48043 26.807 5.29289C26.6195 5.10536 26.3651 5 26.0999 5C25.8347 5 25.5804 5.10536 25.3928 5.29289C25.2053 5.48043 25.0999 5.73478 25.0999 6V8.72C25.0999 8.98522 25.2053 9.23957 25.3928 9.42711C25.5804 9.61464 25.8347 9.72 26.0999 9.72C26.3651 9.72 26.6195 9.61464 26.807 9.42711C26.9946 9.23957 27.0999 8.98522 27.0999 8.72V8.36H29.8299C30.3799 8.35999 30.9074 8.57776 31.2972 8.96568C31.687 9.35359 31.9073 9.88008 31.9099 10.43V20.52C31.9519 23.8783 30.6835 27.1207 28.3739 29.559C26.0644 31.9974 22.8955 33.4398 19.5399 33.58C17.8631 33.628 16.1939 33.3354 14.6332 32.7201C13.0726 32.1048 11.6529 31.1795 10.4599 30C9.26064 28.8284 8.30827 27.4284 7.65904 25.8826C7.00981 24.3368 6.67688 22.6766 6.67993 21V10.43C6.68258 9.88008 6.90288 9.35359 7.29267 8.96568C7.68246 8.57776 8.21001 8.35999 8.75993 8.36H11.4899V8.72C11.4899 8.98522 11.5953 9.23957 11.7828 9.42711C11.9704 9.61464 12.2247 9.72 12.4899 9.72C12.7551 9.72 13.0095 9.61464 13.197 9.42711C13.3846 9.23957 13.4899 8.98522 13.4899 8.72V6C13.4899 5.73478 13.3846 5.48043 13.197 5.29289C13.0095 5.10536 12.7551 5 12.4899 5C12.2247 5 11.9704 5.10536 11.7828 5.29289C11.5953 5.48043 11.4899 5.73478 11.4899 6V6.36H8.75993C7.67958 6.36 6.64333 6.78848 5.87847 7.55147C5.1136 8.31445 4.68258 9.34965 4.67993 10.43V21C4.68459 24.6975 6.09389 28.2551 8.62258 30.9528C11.1513 33.6504 14.6104 35.2865 18.2999 35.53V49.19C18.3813 51.7389 19.451 54.1561 21.2828 55.9304C23.1146 57.7046 25.5648 58.6967 28.1149 58.6967C30.6651 58.6967 33.1153 57.7046 34.947 55.9304C36.7788 54.1561 37.8486 51.7389 37.9299 49.19V41.35V19.79C37.9405 17.722 38.7687 15.7422 40.2338 14.2827C41.6989 12.8232 43.6819 12.0026 45.7499 12C47.8205 12.0026 49.8054 12.8263 51.2695 14.2904C52.7336 15.7545 53.5573 17.7395 53.5599 19.81V36.34C52.4108 36.5869 51.3936 37.2503 50.7044 38.2023C50.0151 39.1544 49.7024 40.3278 49.8266 41.4966C49.9507 42.6654 50.5029 43.7469 51.3768 44.5329C52.2507 45.3189 53.3846 45.7538 54.5599 45.7538C55.7353 45.7538 56.8691 45.3189 57.743 44.5329C58.6169 43.7469 59.1691 42.6654 59.2933 41.4966C59.4175 40.3278 59.1048 39.1544 58.4155 38.2023C57.7262 37.2503 56.7091 36.5869 55.5599 36.34V36.34ZM54.5599 43.74C54.0132 43.74 53.4788 43.5776 53.0245 43.2734C52.5702 42.9693 52.2165 42.537 52.0082 42.0315C51.7999 41.526 51.7464 40.9701 51.8545 40.4342C51.9626 39.8982 52.2275 39.4065 52.6155 39.0213C53.0035 38.6361 53.4971 38.3748 54.0338 38.2706C54.5705 38.1664 55.1261 38.2239 55.6301 38.4359C56.134 38.6478 56.5637 39.0047 56.8645 39.4612C57.1654 39.9177 57.3239 40.4533 57.3199 41C57.3147 41.7285 57.0215 42.4254 56.5045 42.9387C55.9875 43.452 55.2885 43.74 54.5599 43.74V43.74Z"
        fill="#53570E" />
</svg>